# xmcd
#
# Track frame offsets:
#	150
#	10809
#	17548
#	24984
#	39239
#	44675
#	51168
#	63447
#	75791
#	92996
#	104205
#	116913
#	131963
#	139720
#	154314
#	166184
#	179396
#	187113
#
# Disc length: 2701 seconds
#
# Revision: 0
# Processed by: cddbd v1.5.2PL0 Copyright (c) Steve Scherf et al.
# Submitted via: dBpowerAMP V4.0
#
DISCID=f40a8b12
DTITLE=Various Artist - Scene Preservation
DYEAR=1900
DGENRE=Hardcore
TTITLE0=Dodgin' Bullets - Dodgin' Bullets
TTITLE1=Full Contact - Who Are You
TTITLE2=Shockwave - Dirge
TTITLE3=One Against All - Self Betterin'
TTITLE4=Kill Your Idols - Lead Song
TTITLE5=Out Of Line - I Won't Wait Around
TTITLE6=Blood Has Been Shed - Mediocrity Syndrome
TTITLE7=Pflanz - Refuse To Fall
TTITLE8=Twelve Tribes - Strings
TTITLE9=High Hopes - Fade Away
TTITLE10=No Innocent Victim - Paid In Full
TTITLE11=Apathemy - Fe Perdida (No Hope)
TTITLE12=Disciple - Death Of Death
TTITLE13=Intercession - Destruction Of A Once Lost Dream
TTITLE14=Abnegation - Pig Juice
TTITLE15=Coming Of The New Messiah - Bastard
TTITLE16=Brother's Keeper - Bullet
TTITLE17=Thick As Thieves - Engineering The Intangible
EXTD=
EXTT0=
EXTT1=
EXTT2=
EXTT3=
EXTT4=
EXTT5=
EXTT6=
EXTT7=
EXTT8=
EXTT9=
EXTT10=
EXTT11=
EXTT12=
EXTT13=
EXTT14=
EXTT15=
EXTT16=
EXTT17=
PLAYORDER=
